<svg width="214" height="57" viewBox="0 0 214 57" fill="none" xmlns="http://www.w3.org/2000/svg">
<path d="M89.2094 25.4881C87.8796 25.4881 86.6258 25.2246 85.467 24.6787C84.3082 24.1516 83.3584 23.3045 82.6555 22.1939C81.9336 21.0644 81.5727 19.6526 81.5727 17.9584C81.5727 16.2642 81.9336 14.8147 82.6555 13.7229C83.3774 12.6123 84.3082 11.8028 85.467 11.2758C86.6258 10.7487 87.8796 10.4851 89.2094 10.4851C90.5392 10.4851 91.755 10.7487 92.9328 11.2758C94.0916 11.8028 95.0415 12.6123 95.7443 13.7229C96.4662 14.8336 96.8272 16.2454 96.8272 17.9584C96.8272 19.6714 96.4662 21.0832 95.7443 22.1939C95.0225 23.3233 94.0916 24.1516 92.9328 24.6787C91.774 25.2246 90.5392 25.4881 89.2094 25.4881ZM89.2094 22.0997C90.1023 22.0997 90.8431 21.7797 91.432 21.1585C92.021 20.5185 92.3249 19.4643 92.3249 17.9584C92.3249 16.4524 92.0209 15.3795 91.413 14.7771C90.8051 14.1747 90.0643 13.8735 89.2284 13.8735C88.3925 13.8735 87.6137 14.1747 87.0058 14.7771C86.3979 15.3795 86.0939 16.4336 86.0939 17.9584C86.0939 19.4832 86.3979 20.5185 86.9868 21.1585C87.5947 21.7985 88.3356 22.0997 89.2284 22.0997H89.2094Z" fill="#17AB33"/>
<path d="M98.9548 25.1305V10.8616H102.811L103.362 12.7629C103.685 12.217 104.236 11.7087 104.996 11.2005C105.756 10.711 106.668 10.4475 107.731 10.4475C108.871 10.4475 109.783 10.6546 110.467 11.0499C111.151 11.4452 111.664 12.0476 111.987 12.8382C112.557 12.0476 113.259 11.464 114.114 11.0499C114.969 10.6546 115.9 10.4475 116.907 10.4475C118.75 10.4475 120.003 10.9558 120.706 11.9911C121.409 13.0264 121.751 14.4947 121.751 16.4336V25.1116H117.344V17.5254C117.344 16.8478 117.306 16.2454 117.23 15.6807C117.154 15.1159 116.964 14.683 116.641 14.3441C116.337 14.0053 115.824 13.8359 115.102 13.8359C114.209 13.8359 113.563 14.1559 113.164 14.7771C112.766 15.3983 112.557 16.3395 112.557 17.5819V25.1116H108.111V17.5254C108.111 16.8478 108.073 16.2454 108.016 15.6807C107.94 15.1159 107.769 14.683 107.465 14.3441C107.161 14.0053 106.668 13.8359 105.965 13.8359C105.053 13.8359 104.388 14.1559 103.97 14.8147C103.552 15.4736 103.343 16.4148 103.343 17.6572V25.1116H98.9358L98.9548 25.1305Z" fill="#17AB33"/>
<path d="M124.107 25.1305V10.8616H127.963L128.514 12.7629C128.837 12.217 129.388 11.7087 130.148 11.2005C130.908 10.711 131.819 10.4475 132.883 10.4475C134.023 10.4475 134.935 10.6546 135.619 11.0499C136.303 11.4452 136.816 12.0476 137.139 12.8382C137.708 12.0476 138.411 11.464 139.266 11.0499C140.121 10.6546 141.052 10.4475 142.059 10.4475C143.901 10.4475 145.155 10.9558 145.858 11.9911C146.561 13.0264 146.903 14.4947 146.903 16.4336V25.1116H142.496V17.5254C142.496 16.8478 142.458 16.2454 142.382 15.6807C142.306 15.1159 142.116 14.683 141.793 14.3441C141.489 14.0053 140.976 13.8359 140.254 13.8359C139.361 13.8359 138.715 14.1559 138.316 14.7771C137.917 15.3983 137.708 16.3395 137.708 17.5819V25.1116H133.263V17.5254C133.263 16.8478 133.225 16.2454 133.168 15.6807C133.092 15.1159 132.921 14.683 132.617 14.3441C132.313 14.0053 131.819 13.8359 131.117 13.8359C130.205 13.8359 129.54 14.1559 129.122 14.8147C128.704 15.4736 128.495 16.4148 128.495 17.6572V25.1116H124.088L124.107 25.1305Z" fill="#17AB33"/>
<path d="M154.255 25.4881C152.982 25.4881 151.975 25.2622 151.253 24.7916C150.531 24.321 150.018 23.6433 149.715 22.7398C149.411 21.8362 149.259 20.7444 149.259 19.4643V10.8993H153.666V18.862C153.666 20.1608 153.856 21.0267 154.255 21.4597C154.654 21.8927 155.205 22.0997 155.927 22.0997C156.8 22.0997 157.427 21.8174 157.826 21.2338C158.225 20.6503 158.415 19.709 158.415 18.3913V10.8804H162.86V25.1493H159.023L158.415 23.1351C157.997 23.8504 157.465 24.4151 156.838 24.8481C156.211 25.281 155.338 25.4881 154.236 25.4881H154.255Z" fill="#17AB33"/>
<path d="M165.235 25.1305V10.8616H169.091L169.642 12.7629C169.965 12.217 170.516 11.7087 171.276 11.2005C172.036 10.711 172.967 10.4475 174.069 10.4475C175.93 10.4475 177.203 10.9558 177.887 11.9911C178.571 13.0264 178.913 14.4947 178.913 16.4336V25.1116H174.505V17.5254C174.505 16.8478 174.467 16.2454 174.391 15.6807C174.315 15.1159 174.126 14.683 173.822 14.3441C173.518 14.0053 173.005 13.8359 172.302 13.8359C171.371 13.8359 170.687 14.1747 170.269 14.8336C169.851 15.4924 169.623 16.4713 169.623 17.789V25.1305H165.216H165.235Z" fill="#17AB33"/>
<path d="M183.092 25.1305V14.1935H180.357V10.8616H187.518V25.1305H183.073H183.092ZM185.334 8.50859C184.612 8.50859 184.004 8.26388 183.491 7.75562C182.978 7.24736 182.731 6.64499 182.731 5.92966C182.731 5.21434 182.978 4.59314 183.491 4.08488C184.004 3.59545 184.612 3.33191 185.334 3.33191C186.056 3.33191 186.682 3.57663 187.195 4.08488C187.689 4.57431 187.955 5.19552 187.955 5.92966C187.955 6.66381 187.708 7.24736 187.195 7.75562C186.682 8.26388 186.075 8.50859 185.334 8.50859Z" fill="#17AB33"/>
<path d="M196.333 25.1305C195.155 25.1305 194.205 25.0363 193.521 24.8293C192.837 24.6222 192.325 24.2269 192.021 23.6433C191.717 23.0598 191.565 22.2127 191.565 21.102V14.1935H189.19V10.8616H191.565V7.30383H195.972V10.8616H200.265V14.1935H195.972V19.9538C195.972 20.6314 196.105 21.0644 196.371 21.2715C196.637 21.4785 197.112 21.5727 197.834 21.5727H199.106V25.1305H196.314H196.333Z" fill="#17AB33"/>
<path d="M200.854 29.7612V26.5988H201.728C202.393 26.5988 202.887 26.5611 203.21 26.5046C203.533 26.4482 203.799 26.3164 203.97 26.0905C204.16 25.8646 204.331 25.5258 204.483 25.0363L198.973 10.8616H203.704L206.515 19.7844L209.27 10.8616H214L208.491 25.1305C208.035 26.3352 207.56 27.2764 207.085 27.9541C206.61 28.6318 206.002 29.1024 205.28 29.3659C204.54 29.6295 203.552 29.7612 202.298 29.7612H200.873H200.854Z" fill="#17AB33"/>
<path d="M76.4625 19.5961C76.0256 20.4244 75.3987 20.9891 74.6198 21.2903C73.8409 21.5915 73.081 21.7609 72.3402 21.7609C70.9724 21.7609 69.8136 21.2338 68.8637 20.1608C67.9329 19.1067 67.458 17.5631 67.458 15.5489C67.458 14.25 67.6669 13.1205 68.1039 12.1982C68.5218 11.2758 69.1107 10.5604 69.8516 10.071C70.5924 9.58158 71.4093 9.33686 72.2832 9.33686C73.081 9.33686 73.8409 9.50628 74.5818 9.84512C75.3227 10.184 75.8926 10.7487 76.3295 11.5205L80.0339 9.46863C79.331 8.37682 78.4002 7.49208 77.2414 6.8144C75.8736 6.00496 74.2778 5.60965 72.4351 5.60965C70.4405 5.60965 68.7118 6.02378 67.23 6.83323C65.7672 7.64267 64.6274 8.79096 63.8296 10.2781C63.0317 11.7652 62.6328 13.5159 62.6328 15.5489C62.6328 17.5819 63.0127 19.3514 63.7916 20.8385C64.5704 22.3256 65.6723 23.4927 67.135 24.2834C68.5788 25.0928 70.3265 25.4881 72.3402 25.4881C74.1829 25.4881 75.8166 25.0928 77.2224 24.3022C78.4382 23.6245 79.426 22.7398 80.1669 21.6291L76.4815 19.5961H76.4625Z" fill="#17AB33"/>
<path d="M62.6138 51.5786V32.359H76.4815V36.3497H67.192V39.6816H76.4815V43.6724H67.192V51.5598H62.6138V51.5786Z" fill="#17AB33"/>
<path d="M81.4207 51.5786V40.6417H78.6851V37.3098H85.847V51.5786H81.4017H81.4207ZM83.6623 34.9567C82.9404 34.9567 82.3325 34.712 81.8196 34.2038C81.3067 33.6955 81.0597 33.0931 81.0597 32.3778C81.0597 31.6625 81.3067 31.0413 81.8196 30.533C82.3325 30.0436 82.9404 29.7801 83.6623 29.7801C84.3842 29.7801 85.0111 30.0248 85.524 30.533C86.0179 31.0225 86.2839 31.6437 86.2839 32.3778C86.2839 33.112 86.0369 33.6955 85.524 34.2038C85.0111 34.712 84.4032 34.9567 83.6623 34.9567Z" fill="#17AB33"/>
<path d="M97.0931 51.9174C96.3143 51.9174 95.5164 51.7292 94.6615 51.3715C93.8257 51.0139 93.1608 50.4303 92.7048 49.6397L92.1539 51.5598H88.2976V32.3401H92.7048V39.2487C93.1608 38.458 93.8257 37.8745 94.6615 37.4792C95.4974 37.0839 96.3143 36.8956 97.0931 36.8956C98.3279 36.8956 99.4297 37.1968 100.38 37.7804C101.329 38.3828 102.089 39.2298 102.621 40.3217C103.153 41.4323 103.438 42.75 103.438 44.3124C103.438 45.8748 103.172 47.2114 102.621 48.3596C102.07 49.5079 101.329 50.3738 100.38 50.995C99.4297 51.6162 98.3279 51.9174 97.0931 51.9174ZM95.7064 48.5291C96.5612 48.5291 97.3021 48.1526 97.929 47.4184C98.5559 46.6843 98.8788 45.6489 98.8788 44.3312C98.8788 43.0135 98.5559 42.0347 97.929 41.3382C97.3021 40.6417 96.5612 40.3028 95.7064 40.3028C94.8515 40.3028 94.0916 40.6228 93.4647 41.2629C92.8378 41.9029 92.5149 42.9571 92.5149 44.4065C92.5149 45.856 92.8378 46.929 93.4647 47.569C94.0916 48.209 94.8515 48.5102 95.7064 48.5102V48.5291Z" fill="#17AB33"/>
<path d="M105.319 51.5786V37.3098H108.795L109.574 39.9264C110.011 38.7781 110.638 37.9686 111.398 37.5168C112.177 37.0651 113.108 36.858 114.209 36.9145V41.2817C113.981 41.2441 113.772 41.2252 113.601 41.2064C113.43 41.2064 113.24 41.2064 113.013 41.2064C111.949 41.2064 111.132 41.4511 110.562 41.9594C109.992 42.4676 109.707 43.2771 109.707 44.4065V51.5974H105.3L105.319 51.5786Z" fill="#17AB33"/>
<path d="M123.271 51.9174C121.713 51.9174 120.345 51.6162 119.168 51.0139C117.99 50.4115 117.04 49.5456 116.375 48.4161C115.71 47.2866 115.368 45.9313 115.368 44.3689C115.368 42.8065 115.729 41.5452 116.432 40.4346C117.135 39.324 118.085 38.4581 119.243 37.8368C120.421 37.2156 121.694 36.9145 123.081 36.9145C124.677 36.9145 126.025 37.2909 127.165 38.0251C128.305 38.7592 129.16 39.7758 129.73 41.0746C130.319 42.3735 130.547 43.8606 130.452 45.5548H119.794C119.87 46.5525 120.25 47.3055 120.915 47.7949C121.58 48.3032 122.321 48.5479 123.138 48.5479C123.822 48.5479 124.392 48.4538 124.886 48.2467C125.379 48.0396 125.759 47.7949 126.025 47.4937L129.54 48.7549C128.78 49.8468 127.849 50.6562 126.709 51.1645C125.569 51.6727 124.43 51.9363 123.233 51.9363L123.271 51.9174ZM119.813 42.9382H126.367C126.348 42.0158 126.025 41.3193 125.417 40.8487C124.791 40.3781 124.069 40.1522 123.214 40.1522C122.359 40.1522 121.637 40.3781 120.991 40.8111C120.345 41.244 119.946 41.9594 119.813 42.9382Z" fill="#17AB33"/>
<path d="M28.7613 37.3851C23.8031 37.3851 19.7948 33.4131 19.7948 28.5C19.7948 23.5869 23.8031 19.6149 28.7613 19.6149C32.0857 19.6149 34.9733 21.4032 36.531 24.0575L41.2612 21.3468C38.7727 17.0736 34.0994 14.1935 28.7803 14.1935C20.8206 14.1935 14.3616 20.5938 14.3616 28.4812C14.3616 36.3686 20.8396 42.7688 28.7803 42.7688C34.0994 42.7688 38.7727 39.8887 41.2612 35.6156L36.531 32.9049C34.9733 35.5591 32.0857 37.3474 28.7613 37.3474V37.3851Z" fill="#17AB33"/>
<path d="M28.7613 51.5786C15.9004 51.5786 5.45211 41.2441 5.45211 28.4812C5.45211 15.7183 15.9004 5.40258 28.7613 5.40258C37.3859 5.40258 44.9087 10.0522 48.936 16.9419L53.6662 14.2312C52.4124 12.104 50.8927 10.1275 49.088 8.33917C43.6739 2.95542 36.436 0 28.7613 0C21.0866 0 13.8487 2.95542 8.41562 8.33917C2.98251 13.7229 0 20.8762 0 28.5C0 36.1238 2.98251 43.2771 8.41562 48.6608C13.8487 54.0446 21.0676 57 28.7613 57C36.455 57 43.6739 54.0446 49.107 48.6608C50.9117 46.8725 52.4504 44.896 53.6852 42.7688L48.955 40.0581C44.9277 46.9666 37.4049 51.5974 28.7803 51.5974L28.7613 51.5786Z" fill="#17AB33"/>
<path d="M42.743 36.5003C39.9505 41.2817 34.7453 44.4818 28.7613 44.4818C19.8518 44.4818 12.6329 37.3286 12.6329 28.5C12.6329 19.6714 19.8518 12.5182 28.7613 12.5182C34.7263 12.5182 39.9505 15.7371 42.743 20.4997L47.4542 17.789C43.7119 11.4075 36.74 7.09677 28.7613 7.09677C16.8503 7.09677 7.16183 16.6972 7.16183 28.5C7.16183 40.3028 16.8503 49.9032 28.7613 49.9032C36.74 49.9032 43.7119 45.5925 47.4542 39.211L42.724 36.5192L42.743 36.5003Z" fill="#17AB33"/>
</svg>
