<svg width="118" height="72" xmlns="http://www.w3.org/2000/svg" xmlns:xlink="http://www.w3.org/1999/xlink" xml:space="preserve" overflow="hidden"><g transform="translate(-1619 -79)"><path d="M4.94175 41.4998C6.38365 41.4998 7.09495 40 7.09495 38.7113 7.09495 37.4037 6.38365 35.8859 4.94175 35.8859 3.46165 35.8859 2.76878 37.2694 2.76878 38.6156 2.76878 39.9618 3.42211 41.4998 4.94175 41.4998M0 38.1181C0 36.106 1.29363 33.3471 5.12193 33.3471 8.10235 33.3471 9.86463 36.1352 9.86463 38.8272 9.86463 41.4423 8.09516 44.0381 5.30751 44.0381 4.44119 44.0381 3.49895 43.7119 2.76878 43.077L2.76878 46.4609C2.76878 47.3829 2.19184 47.9998 1.38439 47.9998 0.576043 47.9998 3.99086e-16 47.3829 3.99086e-16 46.4609ZM12.1531 31.8931C12.1531 30.9702 12.7296 30.3555 13.5366 30.3555 14.3449 30.3555 14.9219 30.9702 14.9219 31.8931L14.9219 42.3837C14.9219 43.3084 14.3445 43.9235 13.5366 43.9235 12.7296 43.9235 12.1531 43.3084 12.1531 42.3837L12.1531 31.8931M17.6138 35.0007C17.6138 34.0778 18.1912 33.4631 18.9986 33.4631 19.8065 33.4631 20.383 34.0778 20.383 35.0007L20.383 39.942C20.383 41.0968 21.2489 41.7308 22.1714 41.7308 23.0938 41.7308 23.9588 41.0968 23.9588 39.942L23.9588 35.0007C23.9588 34.0778 24.5371 33.4631 25.3441 33.4631 26.1502 33.4631 26.7276 34.0778 26.7276 35.0007L26.7276 40C26.7276 42.4618 25.0938 44.0381 22.1714 44.0381 19.2489 44.0381 17.6138 42.4614 17.6138 40L17.6138 35.0007M47.8309 42.5C47.8309 43.4225 47.2553 44.0381 46.4474 44.0381 45.6391 44.0381 45.0626 43.4225 45.0626 42.5L45.0626 37.5587C45.0626 36.4039 44.1963 35.769 43.2747 35.769 42.3517 35.769 41.4854 36.4039 41.4854 37.5587L41.4854 42.5C41.4854 43.4225 40.9094 44.0381 40.1011 44.0381 39.2936 44.0381 38.7185 43.4225 38.7185 42.5L38.7185 37.5003C38.7185 35.0389 40.3518 33.4626 43.2751 33.4626 46.1971 33.4626 47.8318 35.0393 47.8318 37.5003L47.8318 42.5M35.2856 36.5774C34.7666 36.5774 33.7084 35.7695 32.8044 35.7695 32.3051 35.7695 31.863 36 31.863 36.5387 31.863 37.827 36.6704 37.6347 36.6704 40.7894 36.6704 42.6348 35.1126 44.0376 32.7271 44.0376 31.1706 44.0376 28.8628 43.1529 28.8628 41.9033 28.8628 41.4814 29.2852 40.673 30.0544 40.673 31.1324 40.673 31.6127 41.6157 32.9198 41.6157 33.7664 41.6157 34.0158 41.3452 34.0158 40.8267 34.0158 39.5592 29.2088 39.7501 29.2088 36.5774 29.2088 34.6547 30.7662 33.3471 32.9589 33.3471 34.3231 33.3471 36.4201 33.9821 36.4201 35.3476 36.4206 35.9816 35.9389 36.5774 35.2856 36.5774M56.9384 37.7704C56.7847 36.5599 56.0155 35.6549 54.7268 35.6549 53.497 35.6549 52.6698 36.5976 52.535 37.7704L56.9384 37.7704M52.5934 39.6162C52.7848 40.9808 53.9193 41.6157 55.2067 41.6157 56.6311 41.6157 57.6119 40.5005 58.3426 40.5005 58.9384 40.5005 59.4771 41.0968 59.4771 41.693 59.4771 42.8842 57.0152 44.0381 54.9577 44.0381 51.8425 44.0381 49.7662 41.7703 49.7662 38.7117 49.7662 35.9043 51.8034 33.3476 54.7263 33.3476 57.7261 33.3476 59.7067 36.0777 59.7067 38.3855 59.7067 39.2123 59.3414 39.6167 58.4971 39.6167L52.5934 39.6167ZM62.5155 36 61.8999 36C61.15 36 60.6894 35.539 60.6894 34.7895 60.6894 34.0975 61.208 33.5781 61.8999 33.5781L62.5155 33.5781 62.5155 31.9246C62.5155 31.0003 63.0924 30.386 63.8995 30.386 64.7073 30.386 65.2843 31.0003 65.2843 31.9246L65.2843 33.5781 66.072 33.5781C66.7842 33.5781 67.3997 33.9052 67.3997 34.7895 67.3997 35.6545 66.7842 36 66.072 36L65.2843 36 65.2843 42.3837C65.2843 43.3079 64.7073 43.9231 63.8995 43.9231 63.0924 43.9231 62.5155 43.3079 62.5155 42.3837L62.5155 36" fill="#892063" transform="matrix(1.09259 0 0 1 1641.18 91)"/><path d="M44.9484 17.3995C44.2287 18.1221 43.2503 18.5274 42.2304 18.5255L39.9361 18.5255 39.9137 18.525C39.8144 18.5255 39.5529 18.5295 39.21 18.605 38.8717 18.6846 38.4228 18.8221 38.0076 19.2273 37.7452 19.4953 37.5578 19.8275 37.4644 20.1907 37.3829 20.4982 37.3537 20.8172 37.3781 21.1343L37.3781 23.3778C37.3803 24.3978 36.975 25.3763 36.2521 26.0958 35.5328 26.8188 34.5543 27.224 33.5345 27.2214 32.5148 27.2238 31.5363 26.8186 30.817 26.0958 30.0945 25.3761 29.6893 24.3976 29.6914 23.3778L29.6914 21.1334C29.6959 21.0817 29.699 21.0103 29.699 20.9213 29.699 20.7398 29.6851 20.4882 29.6056 20.1912 29.5251 19.8973 29.3742 19.5414 29.0619 19.2273 28.6467 18.8225 28.1983 18.685 27.8595 18.6055 27.6202 18.5522 27.3758 18.5255 27.1306 18.5259L24.9806 18.5259C23.9609 18.5276 22.9827 18.1223 22.263 17.3999 21.5411 16.6801 21.1359 15.7023 21.137 14.6828 21.1356 13.6632 21.5409 12.6851 22.263 11.9653 22.9828 11.243 23.961 10.8378 24.9806 10.8392L27.1549 10.8392C27.3913 10.8381 27.627 10.8115 27.8577 10.7597 28.1965 10.6806 28.6449 10.5431 29.0614 10.1369 29.3737 9.82374 29.5251 9.46742 29.6051 9.17311 29.6842 8.8761 29.6986 8.62492 29.6986 8.44294 29.699 8.37204 29.6965 8.30113 29.6909 8.23041L29.6909 5.90422C29.689 4.88441 30.0941 3.90603 30.8165 3.18621 31.5361 2.46372 32.5144 2.05852 33.5341 2.06063 34.5537 2.05867 35.532 2.46385 36.2516 3.18621 36.9743 3.90587 37.3797 4.88432 37.3776 5.90422L37.3776 8.22816C37.3531 8.54543 37.3822 8.86464 37.4639 9.17221 37.5576 9.53576 37.7454 9.86822 38.0085 10.136 38.4232 10.5418 38.8721 10.6788 39.2114 10.7583 39.4421 10.8101 39.6777 10.8368 39.9141 10.8379L42.23 10.8379C43.2498 10.8362 44.2281 11.2415 44.948 11.9639 45.6705 12.6835 46.0758 13.6617 46.0736 14.6815 46.0758 15.7013 45.671 16.6798 44.9484 17.3995M48.1342 14.6819C48.1342 11.4202 45.4917 8.77814 42.2304 8.77724L41.1368 8.77724 41.1368 8.7732 39.6967 8.7732C39.5561 8.77293 39.4423 8.65898 39.4423 8.51843L39.4423 7.07787 39.4392 7.07787 39.4392 5.90422C39.4383 2.64207 36.7953 0 33.5345 0 30.36 0.000449332 27.7736 2.50413 27.637 5.64495L27.637 8.51888C27.6373 8.65934 27.5236 8.77338 27.3832 8.77365L25.9417 8.77365 25.9417 8.77769 24.9806 8.77769C21.7198 8.77814 19.0773 11.4207 19.0768 14.6824 19.0773 17.9005 21.6515 20.5142 24.853 20.583L27.3751 20.583C27.5157 20.583 27.6294 20.6976 27.6294 20.8378L27.6294 22.2788 27.6303 22.2788 27.6303 23.3778C27.6312 26.6391 30.2724 29.282 33.5345 29.2829 36.7953 29.282 39.4387 26.6391 39.4396 23.3778L39.4396 22.2788 39.4428 22.2788 39.4428 20.8378C39.4428 20.6976 39.5565 20.583 39.6971 20.583L42.3589 20.583C45.5609 20.5138 48.1342 17.9 48.1342 14.6819" fill="#C91F6F" transform="matrix(1.09259 0 0 1 1641.18 91)"/></g></svg>